<?xml version="1.0" encoding="utf-8"?>
<svg xmlns="http://www.w3.org/2000/svg" viewBox="125.333 156.214 129.535 20.946" width="129.535px" height="20.946px">
  <path d="M 125.333 176.859 L 125.333 156.488 L 138.991 156.488 L 138.991 159.974 L 129.53 159.974 L 129.53 164.855 L 138.267 164.855 L 138.267 168.287 L 129.53 168.287 L 129.53 173.373 L 139.019 173.373 L 139.019 176.859 Z M 141.204 176.859 L 148.163 156.488 L 153.66 156.488 L 160.796 176.859 L 156.134 176.859 L 152.88 167.07 Q 152.279 165.156 151.677 162.88 Q 151.076 160.603 150.406 157.923 L 151.322 157.923 Q 150.665 160.617 150.098 162.9 Q 149.531 165.183 148.97 167.07 L 145.839 176.859 Z M 145.566 172.142 L 145.566 168.861 L 156.435 168.861 L 156.435 172.142 Z M 169.42 177.16 Q 166.973 177.16 165.155 176.408 Q 163.336 175.656 162.325 174.172 Q 161.313 172.689 161.245 170.515 L 165.332 170.515 Q 165.415 171.554 165.941 172.238 Q 166.467 172.921 167.356 173.27 Q 168.245 173.619 169.366 173.619 Q 170.487 173.619 171.314 173.291 Q 172.141 172.963 172.599 172.381 Q 173.057 171.8 173.057 171.035 Q 173.057 170.338 172.647 169.866 Q 172.237 169.394 171.451 169.059 Q 170.665 168.724 169.557 168.464 L 167.315 167.904 Q 164.731 167.275 163.261 165.928 Q 161.791 164.582 161.791 162.353 Q 161.791 160.507 162.79 159.127 Q 163.788 157.746 165.517 156.98 Q 167.247 156.214 169.461 156.214 Q 171.731 156.214 173.413 156.987 Q 175.094 157.759 176.038 159.133 Q 176.981 160.507 177.008 162.298 L 172.948 162.298 Q 172.838 161.082 171.909 160.412 Q 170.979 159.742 169.434 159.742 Q 168.368 159.742 167.623 160.043 Q 166.877 160.343 166.488 160.877 Q 166.098 161.41 166.098 162.093 Q 166.098 162.832 166.549 163.324 Q 167 163.816 167.746 164.124 Q 168.491 164.431 169.352 164.636 L 171.184 165.088 Q 172.483 165.388 173.59 165.88 Q 174.698 166.373 175.532 167.09 Q 176.366 167.808 176.824 168.793 Q 177.282 169.777 177.282 171.048 Q 177.282 172.908 176.345 174.282 Q 175.409 175.656 173.652 176.408 Q 171.895 177.16 169.42 177.16 Z M 186.607 176.859 L 186.607 169.203 L 179.06 156.488 L 183.982 156.488 L 187.413 162.832 Q 187.933 163.789 188.343 164.725 Q 188.753 165.662 189.191 166.974 L 188.275 166.974 Q 188.699 165.648 189.095 164.705 Q 189.492 163.761 189.997 162.832 L 193.32 156.488 L 198.214 156.488 L 190.79 169.203 L 190.79 176.859 Z M 207.05 177.132 Q 204.343 177.132 202.196 175.902 Q 200.05 174.671 198.812 172.334 Q 197.575 169.996 197.575 166.687 Q 197.575 163.351 198.826 161.013 Q 200.077 158.675 202.223 157.445 Q 204.37 156.214 207.05 156.214 Q 208.786 156.214 210.29 156.7 Q 211.794 157.185 212.956 158.115 Q 214.118 159.045 214.856 160.391 Q 215.595 161.738 215.827 163.461 L 211.575 163.461 Q 211.438 162.627 211.055 161.977 Q 210.673 161.328 210.085 160.87 Q 209.497 160.412 208.752 160.179 Q 208.007 159.947 207.132 159.947 Q 205.546 159.947 204.356 160.733 Q 203.167 161.519 202.504 163.023 Q 201.841 164.527 201.841 166.687 Q 201.841 168.875 202.511 170.379 Q 203.18 171.882 204.37 172.641 Q 205.559 173.4 207.118 173.4 Q 207.993 173.4 208.738 173.161 Q 209.483 172.921 210.071 172.47 Q 210.659 172.019 211.049 171.363 Q 211.438 170.707 211.589 169.886 L 215.841 169.886 Q 215.677 171.295 215 172.593 Q 214.323 173.892 213.195 174.918 Q 212.067 175.943 210.522 176.538 Q 208.977 177.132 207.05 177.132 Z M 216.587 176.859 L 223.546 156.488 L 229.042 156.488 L 236.179 176.859 L 231.517 176.859 L 228.263 167.07 Q 227.662 165.156 227.06 162.88 Q 226.458 160.603 225.788 157.923 L 226.704 157.923 Q 226.048 160.617 225.481 162.9 Q 224.913 165.183 224.353 167.07 L 221.222 176.859 Z M 220.949 172.142 L 220.949 168.861 L 231.818 168.861 L 231.818 172.142 Z M 244.929 176.859 L 239.638 176.859 L 239.638 173.236 L 244.737 173.236 Q 246.693 173.236 248.019 172.546 Q 249.345 171.855 250.015 170.399 Q 250.685 168.943 250.685 166.66 Q 250.685 164.39 250.008 162.941 Q 249.331 161.492 248.012 160.801 Q 246.693 160.111 244.751 160.111 L 239.542 160.111 L 239.542 156.488 L 244.997 156.488 Q 248.073 156.488 250.275 157.712 Q 252.476 158.935 253.672 161.212 Q 254.868 163.488 254.868 166.66 Q 254.868 169.845 253.672 172.129 Q 252.476 174.412 250.254 175.635 Q 248.032 176.859 244.929 176.859 Z M 241.948 156.488 L 241.948 176.859 L 237.751 176.859 L 237.751 156.488 Z" style="fill: rgb(255, 255, 255); text-wrap-mode: nowrap;"/>
</svg>